<svg xmlns="http://www.w3.org/2000/svg" viewBox="0 0 1609.8 838.85"><defs><style>.cls-1{fill:#fdffd7;}.cls-2,.cls-4{opacity:0.2;}.cls-3{fill:#209fa5;}.cls-4{fill:#846400;}.cls-5{fill:#faf53b;}.cls-6{fill:#f0db0b;}.cls-7{fill:#f0c027;}</style></defs><title>paragraphs</title><g id="Layer_2" data-name="Layer 2"><g id="Layer_1-2" data-name="Layer 1"><path class="cls-1" d="M1539.71,332.83l-42,409.42c-1.5,14.52-14.68,26.4-29.29,26.41l-1229.78.91a9.58,9.58,0,0,1-1.69-.09c-14.07-.78-28-12-31.44-25.65l-136-532.71c-3.64-14.16,5.38-24.8,19.9-23.56L1516,304.25a26,26,0,0,1,23.39,20.52A30,30,0,0,1,1539.71,332.83Z"/><path class="cls-1" d="M1539.71,332.83l-42,409.42c-1.5,14.52-14.68,26.4-29.29,26.41l-1229.78.91a9.58,9.58,0,0,1-1.69-.09c-14.07-.78-28-12-31.44-25.65l-136-532.71c-3.64-14.16,5.38-24.8,19.9-23.56L1516,304.25a26,26,0,0,1,23.39,20.52A30,30,0,0,1,1539.71,332.83Z"/><path class="cls-2" d="M185.27,535.27v0l-11.16-43.69,0-.07L120.2,280.36l-8-31.11c-3.34-13.14,4.24-23.3,17-23.64h.65a20.41,20.41,0,0,1,2.21.08l82.1,6.73h0L232,233.85h0L1552.29,341.93a26,26,0,0,0-23.4-20.52L234.84,215.56h0L217.1,214.1h0l-84.74-6.93-17.27-1.41-.4,0-8.46-.68-3.93-.33a21.4,21.4,0,0,0-2.24-.09h-.18a3.24,3.24,0,0,0-.45,0,.67.67,0,0,0-.2,0,7.4,7.4,0,0,0-.94.05h0l-.93.09h0l-.37.05c-.3,0-.59.08-.86.13l-.71.13-.39.1c-.19,0-.37.08-.57.13l-.35.1a3.78,3.78,0,0,0-.63.19q-.27.07-.54.18l-.58.21-.93.39c-.3.13-.57.26-.83.4a10.66,10.66,0,0,0-1,.55l-.78.5-.63.46c-.21.16-.42.31-.61.48s-.39.33-.58.51l-.55.53-.53.55c-.17.19-.33.39-.49.58l-.48.62c-.07.09-.15.21-.23.3a3,3,0,0,1-.21.33c-.24.37-.48.76-.69,1.15a17.51,17.51,0,0,0-1.54,3.84c-.06.26-.13.52-.19.8s-.13.68-.19,1a20.12,20.12,0,0,0-.23,3.92,5.1,5.1,0,0,0,0,.67c0,.47.08.93.15,1.42a24.48,24.48,0,0,0,.61,3.26l6.67,26.11v0h0v0l5.43,21.24v0L99.69,296l.25,1h0v0l10.59,41.47,54.3,212.64,0,.06v0L176,594.9v0h0v0l42.4,166c3.47,13.63,17.37,24.87,31.45,25.65v0a42.88,42.88,0,0,1-1.61-4.59Z"/><path class="cls-3" d="M239.24,838.85c-45.82,0-88.91-33.47-100.24-77.85l-23.36-91.45v-.1L60.6,454l-9.9-38.81-.94-3.63-5.7-22.36-4.94-19.32-8.24-32.3L3,228.24C-4,200.9,1.48,173,18.07,151.57c14.46-18.64,35.67-30.32,59.73-32.89a95.94,95.94,0,0,1,9.93-.54c2.38,0,4.5.07,6.56.22l6,.42.08.07,11.71,1,.4,0,101.14,8.27,17.75,1.44L1522.25,235.2a95.25,95.25,0,0,1,87,104.73l-6.37,62.13-14.27,138.85-21.4,208.39c-5.1,49.67-48.21,88.6-98.14,88.64l-1229.79.91Zm-17.45-99c1.69,6.62,9.38,12.93,16.46,13.5.36,0,.68,0,1,0L1469,752.48h.31c6.25-.17,12.28-5.73,12.91-11.9l42-409.38a9.81,9.81,0,0,0-9-10.81L220.58,214.43,88.43,203.61h-.84l-1.52.18a2.28,2.28,0,0,0-.54.22,6.58,6.58,0,0,0,.23,3.08l6.79,26.59v0L98,255l4.7,18.35.47,1.86,76.34,299Z"/><path class="cls-3" d="M239.26,769.56c-.78,0-1.54,0-2.32-.09-13.84-1.12-27.39-12.2-30.81-25.62L163.32,576.23v0l-11.15-43.69,0-.08-.24,1.55v.07h0l11.16,43.66v0L142.61,709.82h0l12,47.17c9.57,37.47,46,65.72,84.64,65.69l659.38-.49,143.82-13.64,6.43-.6h0l8.68-.84h.09l7-.67h.13l5.35-.51h0l4.82-.45,3.13-.29,145.12-13.77c.1,0,.1,0,.18-.08a3.87,3.87,0,0,0,2.39-1.61,10.15,10.15,0,0,0,2-5.83v-.1a11.89,11.89,0,0,0-.08-1.68l-.89-8.85-.44-4.43h2.62ZM87,277.36,81.81,257l-.24,1.47v0l5.19,20.34.24.95v0h0l.24-1.51h0Zm152.24,492.2c-.78,0-1.54,0-2.32-.09-13.84-1.12-27.39-12.2-30.81-25.62L163.32,576.23v0l-11.15-43.69,0-.08-.24,1.55v.07h0l11.16,43.66v0L142.61,709.82h0l12,47.17c9.57,37.47,46,65.72,84.64,65.69l659.38-.49,143.82-13.64,6.43-.6h0l8.68-.84h.09l7-.67h.13l5.35-.51h0l4.82-.45,3.13-.29,145.12-13.77c.1,0,.1,0,.18-.08a3.87,3.87,0,0,0,2.39-1.61,10.15,10.15,0,0,0,2-5.83v-.1a11.89,11.89,0,0,0-.08-1.68l-.89-8.85-.44-4.43h2.62ZM87,277.36,81.81,257l-.24,1.47v0l5.19,20.34.24.95v0h0l.24-1.51h0Zm152.24,492.2c-.78,0-1.54,0-2.32-.09-13.84-1.12-27.39-12.2-30.81-25.62L163.32,576.23v0l-11.15-43.69,0-.08-.24,1.55v.07h0l11.16,43.66v0L142.61,709.82h0l12,47.17c9.57,37.47,46,65.72,84.64,65.69l659.38-.49,143.82-13.64,6.43-.6h0l8.68-.84h.09l7-.67h.13l5.35-.51h0l4.82-.45,3.13-.29,145.12-13.77c.1,0,.1,0,.18-.08a3.87,3.87,0,0,0,2.39-1.61,10.15,10.15,0,0,0,2-5.83v-.1a11.89,11.89,0,0,0-.08-1.68l-.89-8.85-.44-4.43h2.62Zm-152-491.22L87,279.83v0h0v0l10.59,41.48.25-1.51Zm152,491.22c-.78,0-1.54,0-2.32-.09-13.84-1.12-27.39-12.2-30.81-25.62L163.32,576.23v0l-11.15-43.69,0-.08-.24,1.55v.07h0l11.16,43.66v0L142.61,709.82h0l12,47.17c9.57,37.47,46,65.72,84.64,65.69l659.38-.49,143.82-13.64,6.43-.6h0l8.68-.84h.09l7-.67h.13l5.35-.51h0l4.82-.45,3.13-.29,145.12-13.77c.1,0,.1,0,.18-.08a3.87,3.87,0,0,0,2.39-1.61,10.15,10.15,0,0,0,2-5.83v-.1a11.89,11.89,0,0,0-.08-1.68l-.89-8.85-.44-4.43h2.62Zm-152-491.22L87,279.83v0h0v0l10.59,41.48.25-1.51Zm152,491.22c-.78,0-1.54,0-2.32-.09-13.84-1.12-27.39-12.2-30.81-25.62L163.32,576.23v0l-11.15-43.69,0-.08-.24,1.55v.07h0l11.16,43.66v0L142.61,709.82h0l12,47.17c9.57,37.47,46,65.72,84.64,65.69l659.38-.49,143.82-13.64,6.43-.6h0l8.68-.84h.09l7-.67h.13l5.35-.51h0l4.82-.45,3.13-.29,145.12-13.77c.1,0,.1,0,.18-.08a3.87,3.87,0,0,0,2.39-1.61,10.15,10.15,0,0,0,2-5.83v-.1a11.89,11.89,0,0,0-.08-1.68l-.89-8.85-.44-4.43h2.62Zm-152-491.22L87,279.83v0h0v0l10.59,41.48.25-1.51Zm152,491.22c-.78,0-1.54,0-2.32-.09-13.84-1.12-27.39-12.2-30.81-25.62L163.32,576.23v0l-11.15-43.69,0-.08-.24,1.55v.07h0l11.16,43.66v0L142.61,709.82h0l12,47.17c9.57,37.47,46,65.72,84.64,65.69l659.38-.49,143.82-13.64,6.43-.6h0l8.68-.84h.09l7-.67h.13l5.35-.51h0l4.82-.45,3.13-.29,145.12-13.77c.1,0,.1,0,.18-.08a3.87,3.87,0,0,0,2.39-1.61,10.15,10.15,0,0,0,2-5.83v-.1a11.89,11.89,0,0,0-.08-1.68l-.89-8.85-.44-4.43h2.62Zm-152-491.22L87,279.83v0h0v0l10.59,41.48.25-1.51Zm152,491.22c-.78,0-1.54,0-2.32-.09-13.84-1.12-27.39-12.2-30.81-25.62L163.32,576.23v0l-11.15-43.69,0-.08-.24,1.55v.07h0l11.16,43.66v0L142.61,709.82h0l12,47.17c9.57,37.47,46,65.72,84.64,65.69l659.38-.49,143.82-13.64,6.43-.6h0l8.68-.84h.09l7-.67h.13l5.35-.51h0l4.82-.45,3.13-.29,145.12-13.77c.1,0,.1,0,.18-.08a3.87,3.87,0,0,0,2.39-1.61,10.15,10.15,0,0,0,2-5.83v-.1a11.89,11.89,0,0,0-.08-1.68l-.89-8.85-.44-4.43h2.62Zm-152-491.22h0l-.24-1L81.81,257l-.24,1.47v0l5.19,20.34.24.95v0h0v0l10.59,41.48.25-1.51Zm152,491.22c-.78,0-1.54,0-2.32-.09-13.84-1.12-27.39-12.2-30.81-25.62L163.32,576.23v0l-11.15-43.69,0-.08L97.86,319.85l-10.6-41.51h0l-.24-1L81.81,257l-.24,1.47v0l5.19,20.34.24.95v0h0v0l10.59,41.48L151.91,534v.07h0l11.16,43.66v0L142.61,709.82h0l12,47.17c9.57,37.47,46,65.72,84.64,65.69l659.38-.49,143.82-13.64,6.43-.6h0l8.68-.84h.09l7-.67h.13l5.35-.51h0l4.82-.45,3.13-.29,145.12-13.77c.1,0,.1,0,.18-.08a3.87,3.87,0,0,0,2.39-1.61,10.15,10.15,0,0,0,2-5.83v-.1a11.89,11.89,0,0,0-.08-1.68l-.89-8.85-.44-4.43h2.62Zm0,0c-.78,0-1.54,0-2.32-.09-13.84-1.12-27.39-12.2-30.81-25.62L163.32,576.23v0l-11.15-43.69,0-.08L97.86,319.85l-10.6-41.51h0l-.24-1L81.81,257l-.24,1.47v0l5.19,20.34.24.95v0h0v0l10.59,41.48L151.91,534v.07h0l11.16,43.66v0L142.61,709.82h0l12,47.17c9.57,37.47,46,65.72,84.64,65.69l659.38-.49,143.82-13.64,6.43-.6h0l8.68-.84h.09l7-.67h.13l5.35-.51h0l4.82-.45,3.13-.29,145.12-13.77c.1,0,.1,0,.18-.08a3.87,3.87,0,0,0,2.39-1.61,10.15,10.15,0,0,0,2-5.83v-.1a11.89,11.89,0,0,0-.08-1.68l-.89-8.85-.44-4.43h2.62Zm0,0c-.78,0-1.54,0-2.32-.09-13.84-1.12-27.39-12.2-30.81-25.62L163.32,576.23v0l-11.15-43.69,0-.08L97.86,319.85l-10.6-41.51h0l-.24-1L81.81,257l-.24,1.47v0l5.19,20.34.24.95v0h0v0l10.59,41.48L151.91,534v.07h0l11.16,43.66v0L142.61,709.82h0l12,47.17c9.57,37.47,46,65.72,84.64,65.69l659.38-.49,143.82-13.64,6.43-.6h0l8.68-.84h.09l7-.67h.13l5.35-.51h0l4.82-.45,3.13-.29,145.12-13.77c.1,0,.1,0,.18-.08a3.87,3.87,0,0,0,2.39-1.61,10.15,10.15,0,0,0,2-5.83v-.1a11.89,11.89,0,0,0-.08-1.68l-.89-8.85-.44-4.43h2.62Zm1336.1-490a78.62,78.62,0,0,0-54.43-28.29L230.08,145.68h0l-17.71-1.44h0l-84.17-6.89-17.27-1.41-.41-.05-8.45-.68-7.7-.63-1.15-.08v0c-1.85-.12-3.66-.17-5.43-.17a77.06,77.06,0,0,0-8.22.44,70.58,70.58,0,0,0-48.67,26.73c-13.5,17.41-18,40.29-12.23,62.75L46.54,333.57l8.24,32.29,0,0,5.43,21.25v0l5.19,20.35.24,1,0,0L76.27,450,131.44,666l0,.1,11.15,43.68h0l12,47.17c9.57,37.47,46,65.72,84.64,65.69l1229.79-.92c41.76,0,77.8-32.58,82.07-74.12l21.4-208.39,1.57-15.31,11.51-112v0l1.19-11.51v0l6.37-62.1A78.52,78.52,0,0,0,1575.36,279.6Zm-105.58,489c-.25,0-.49,0-.73,0l-1229.79.91c-.78,0-1.54,0-2.32-.09-13.84-1.12-27.39-12.2-30.81-25.62L163.32,576.23v0l-11.15-43.69,0-.08L97.86,319.85l-10.6-41.51h0l-.24-1L81.81,257v0l-5.43-21.27v0l-6.29-24.63c-3.11-12.22,3.12-21.8,14.26-23.41h0a15,15,0,0,1,1.93-.21.61.61,0,0,1,.19,0,3.31,3.31,0,0,1,.45,0h.18a4.79,4.79,0,0,1,.66,0c.72,0,1.48,0,2.22.09l3.31.28,8.46.69.4,0,17.27,1.41,84.74,6.94h0l17.72,1.45h0l1294.67,106a26,26,0,0,1,23.77,28.59l-42,409.36C1496.86,756.5,1484.08,768.23,1469.78,768.63Zm-1230.52.93c-.78,0-1.54,0-2.32-.09-13.84-1.12-27.39-12.2-30.81-25.62L163.32,576.23v0l-11.15-43.69,0-.08L97.86,319.85l-10.6-41.51h0l-.24-1L81.81,257l-.24,1.47v0l5.19,20.34.24.95v0h0v0l10.59,41.48L151.91,534v.07h0l11.16,43.66v0L142.61,709.82h0l12,47.17c9.57,37.47,46,65.72,84.64,65.69l659.38-.49,143.82-13.64,6.43-.6h0l8.68-.84h.09l7-.67h.13l5.35-.51h0l4.82-.45,3.13-.29,145.12-13.77c.1,0,.1,0,.18-.08a3.87,3.87,0,0,0,2.39-1.61,10.15,10.15,0,0,0,2-5.83v-.1a11.89,11.89,0,0,0-.08-1.68l-.89-8.85-.44-4.43h2.62Zm0,0c-.78,0-1.54,0-2.32-.09-13.84-1.12-27.39-12.2-30.81-25.62L163.32,576.23v0l-11.15-43.69,0-.08L97.86,319.85l-10.6-41.51h0l-.24-1L81.81,257l-.24,1.47v0l5.19,20.34.24.95v0h0v0l10.59,41.48L151.91,534v.07h0l11.16,43.66v0L142.61,709.82h0l12,47.17c9.57,37.47,46,65.72,84.64,65.69l659.38-.49,143.82-13.64,6.43-.6h0l8.68-.84h.09l7-.67h.13l5.35-.51h0l4.82-.45,3.13-.29,145.12-13.77c.1,0,.1,0,.18-.08a3.87,3.87,0,0,0,2.39-1.61,10.15,10.15,0,0,0,2-5.83v-.1a11.89,11.89,0,0,0-.08-1.68l-.89-8.85-.44-4.43h2.62Zm-152-491.22h0l-.24-1L81.81,257l-.24,1.47v0l5.19,20.34.24.95v0h0v0l10.59,41.48.25-1.51Zm152,491.22c-.78,0-1.54,0-2.32-.09-13.84-1.12-27.39-12.2-30.81-25.62L163.32,576.23v0l-11.15-43.69,0-.08-.24,1.55v.07h0l11.16,43.66v0L142.61,709.82h0l12,47.17c9.57,37.47,46,65.72,84.64,65.69l659.38-.49,143.82-13.64,6.43-.6h0l8.68-.84h.09l7-.67h.13l5.35-.51h0l4.82-.45,3.13-.29,145.12-13.77c.1,0,.1,0,.18-.08a3.87,3.87,0,0,0,2.39-1.61,10.15,10.15,0,0,0,2-5.83v-.1a11.89,11.89,0,0,0-.08-1.68l-.89-8.85-.44-4.43h2.62Zm-152-491.22L87,279.83v0h0v0l10.59,41.48.25-1.51Zm152,491.22c-.78,0-1.54,0-2.32-.09-13.84-1.12-27.39-12.2-30.81-25.62L163.32,576.23v0l-11.15-43.69,0-.08-.24,1.55v.07h0l11.16,43.66v0L142.61,709.82h0l12,47.17c9.57,37.47,46,65.72,84.64,65.69l659.38-.49,143.82-13.64,6.43-.6h0l8.68-.84h.09l7-.67h.13l5.35-.51h0l4.82-.45,3.13-.29,145.12-13.77c.1,0,.1,0,.18-.08a3.87,3.87,0,0,0,2.39-1.61,10.15,10.15,0,0,0,2-5.83v-.1a11.89,11.89,0,0,0-.08-1.68l-.89-8.85-.44-4.43h2.62Zm-152-491.22L87,279.83v0h0v0l10.59,41.48.25-1.51Zm152,491.22c-.78,0-1.54,0-2.32-.09-13.84-1.12-27.39-12.2-30.81-25.62L163.32,576.23v0l-11.15-43.69,0-.08-.24,1.55v.07h0l11.16,43.66v0L142.61,709.82h0l12,47.17c9.57,37.47,46,65.72,84.64,65.69l659.38-.49,143.82-13.64,6.43-.6h0l8.68-.84h.09l7-.67h.13l5.35-.51h0l4.82-.45,3.13-.29,145.12-13.77c.1,0,.1,0,.18-.08a3.87,3.87,0,0,0,2.39-1.61,10.15,10.15,0,0,0,2-5.83v-.1a11.89,11.89,0,0,0-.08-1.68l-.89-8.85-.44-4.43h2.62Zm-152-491.22L87,279.83v0h0v0l10.59,41.48.25-1.51Zm152,491.22c-.78,0-1.54,0-2.32-.09-13.84-1.12-27.39-12.2-30.81-25.62L163.32,576.23v0l-11.15-43.69,0-.08-.24,1.55v.07h0l11.16,43.66v0L142.61,709.82h0l12,47.17c9.57,37.47,46,65.72,84.64,65.69l659.38-.49,143.82-13.64,6.43-.6h0l8.68-.84h.09l7-.67h.13l5.35-.51h0l4.82-.45,3.13-.29,145.12-13.77c.1,0,.1,0,.18-.08a3.87,3.87,0,0,0,2.39-1.61,10.15,10.15,0,0,0,2-5.83v-.1a11.89,11.89,0,0,0-.08-1.68l-.89-8.85-.44-4.43h2.62Zm-152-491.22L87,279.83v0h0v0l10.59,41.48.25-1.51Zm152,491.22c-.78,0-1.54,0-2.32-.09-13.84-1.12-27.39-12.2-30.81-25.62L163.32,576.23v0l-11.15-43.69,0-.08-.24,1.55v.07h0l11.16,43.66v0L142.61,709.82h0l12,47.17c9.57,37.47,46,65.72,84.64,65.69l659.38-.49,143.82-13.64,6.43-.6h0l8.68-.84h.09l7-.67h.13l5.35-.51h0l4.82-.45,3.13-.29,145.12-13.77c.1,0,.1,0,.18-.08a3.87,3.87,0,0,0,2.39-1.61,10.15,10.15,0,0,0,2-5.83v-.1a11.89,11.89,0,0,0-.08-1.68l-.89-8.85-.44-4.43h2.62ZM87,277.36,81.81,257l-.24,1.47v0l5.19,20.34.24.95v0h0l.24-1.51h0Zm152.24,492.2c-.78,0-1.54,0-2.32-.09-13.84-1.12-27.39-12.2-30.81-25.62L163.32,576.23v0l-11.15-43.69,0-.08-.24,1.55v.07h0l11.16,43.66v0L142.61,709.82h0l12,47.17c9.57,37.47,46,65.72,84.64,65.69l659.38-.49,143.82-13.64,6.43-.6h0l8.68-.84h.09l7-.67h.13l5.35-.51h0l4.82-.45,3.13-.29,145.12-13.77c.1,0,.1,0,.18-.08a3.87,3.87,0,0,0,2.39-1.61,10.15,10.15,0,0,0,2-5.83v-.1a11.89,11.89,0,0,0-.08-1.68l-.89-8.85-.44-4.43h2.62ZM87,277.36,81.81,257l-.24,1.47v0l5.19,20.34.24.95v0h0l.24-1.51h0Zm152.24,492.2c-.78,0-1.54,0-2.32-.09-13.84-1.12-27.39-12.2-30.81-25.62L163.32,576.23v0l-11.15-43.69,0-.08-.24,1.55v.07h0l11.16,43.66v0L142.61,709.82h0l12,47.17c9.57,37.47,46,65.72,84.64,65.69l659.38-.49,143.82-13.64,6.43-.6h0l8.68-.84h.09l7-.67h.13l5.35-.51h0l4.82-.45,3.13-.29,145.12-13.77c.1,0,.1,0,.18-.08a3.87,3.87,0,0,0,2.39-1.61,10.15,10.15,0,0,0,2-5.83v-.1a11.89,11.89,0,0,0-.08-1.68l-.89-8.85-.44-4.43h2.62ZM87,277.36,81.81,257l-.24,1.47v0l5.19,20.34.24.95v0h0l.24-1.51h0Zm152.24,492.2c-.78,0-1.54,0-2.32-.09-13.84-1.12-27.39-12.2-30.81-25.62L163.32,576.23v0l-11.15-43.69,0-.08-.24,1.55v.07h0l11.16,43.66v0L142.61,709.82h0l12,47.17c9.57,37.47,46,65.72,84.64,65.69l659.38-.49,143.82-13.64,6.43-.6h0l8.68-.84h.09l7-.67h.13l5.35-.51h0l4.82-.45,3.13-.29,145.12-13.77c.1,0,.1,0,.18-.08a3.87,3.87,0,0,0,2.39-1.61,10.15,10.15,0,0,0,2-5.83v-.1a11.89,11.89,0,0,0-.08-1.68l-.89-8.85-.44-4.43h2.62Zm0,0c-.78,0-1.54,0-2.32-.09-13.84-1.12-27.39-12.2-30.81-25.62L163.32,576.23v0l-11.15-43.69,0-.08-.24,1.55v.07h0l11.16,43.66v0L142.61,709.82h0l12,47.17c9.57,37.47,46,65.72,84.64,65.69l659.38-.49,143.82-13.64,6.43-.6h0l8.68-.84h.09l7-.67h.13l5.35-.51h0l4.82-.45,3.13-.29,145.12-13.77c.1,0,.1,0,.18-.08a3.87,3.87,0,0,0,2.39-1.61,10.15,10.15,0,0,0,2-5.83v-.1a11.89,11.89,0,0,0-.08-1.68l-.89-8.85-.44-4.43h2.62ZM87,277.36,81.81,257l-.24,1.47v0l5.19,20.34.24.95v0h0l.24-1.51h0Z"/><rect class="cls-3" x="561.8" y="753.01" width="34" height="23"/><circle class="cls-4" cx="651.18" cy="802.06" r="26.77"/><circle class="cls-5" cx="645.99" cy="794.97" r="26.77"/><circle class="cls-4" cx="1202.56" cy="802.06" r="26.77"/><circle class="cls-5" cx="1197.36" cy="794.97" r="26.77"/><circle class="cls-4" cx="1064.71" cy="802.06" r="26.77"/><circle class="cls-5" cx="1059.52" cy="794.97" r="26.77"/><circle class="cls-4" cx="926.87" cy="802.06" r="26.77"/><circle class="cls-5" cx="921.68" cy="794.97" r="26.77"/><circle class="cls-4" cx="789.03" cy="802.06" r="26.77"/><circle class="cls-5" cx="783.83" cy="794.97" r="26.77"/><circle class="cls-4" cx="1478.24" cy="802.06" r="26.77"/><circle class="cls-5" cx="1473.05" cy="794.97" r="26.77"/><circle class="cls-4" cx="1340.4" cy="802.06" r="26.77"/><circle class="cls-5" cx="1335.21" cy="794.97" r="26.77"/><circle class="cls-4" cx="513.34" cy="802.06" r="26.77"/><circle class="cls-5" cx="508.14" cy="794.97" r="26.77"/><circle class="cls-4" cx="375.49" cy="802.06" r="26.77"/><circle class="cls-5" cx="370.3" cy="794.97" r="26.77"/><circle class="cls-4" cx="237.65" cy="802.06" r="26.77"/><circle class="cls-5" cx="232.46" cy="794.97" r="26.77"/><circle class="cls-4" cx="135.18" cy="592.44" r="26.77"/><circle class="cls-5" cx="140.89" cy="585.76" r="26.77"/><circle class="cls-4" cx="167.5" cy="712.97" r="26.77"/><circle class="cls-5" cx="173.21" cy="706.29" r="26.77"/><circle class="cls-4" cx="103.86" cy="471.91" r="26.77"/><circle class="cls-5" cx="109.57" cy="465.23" r="26.77"/><circle class="cls-4" cx="71.54" cy="351.38" r="26.77"/><circle class="cls-5" cx="77.25" cy="344.7" r="26.77"/><circle class="cls-4" cx="47.22" cy="230.85" r="26.77"/><circle class="cls-5" cx="52.93" cy="224.17" r="26.77"/><circle class="cls-4" cx="1547.3" cy="598.98" r="26.77"/><circle class="cls-5" cx="1540.69" cy="593.19" r="26.77"/><circle class="cls-4" cx="1532.6" cy="722.9" r="26.77"/><circle class="cls-5" cx="1525.99" cy="717.1" r="26.77"/><circle class="cls-4" cx="1561.02" cy="475.2" r="26.77"/><circle class="cls-5" cx="1554.41" cy="469.41" r="26.77"/><circle class="cls-4" cx="1575.72" cy="351.28" r="26.77"/><circle class="cls-5" cx="1569.11" cy="345.49" r="26.77"/><circle class="cls-4" cx="535.6" cy="206.2" r="26.77"/><circle class="cls-5" cx="530.98" cy="198.72" r="26.77"/><circle class="cls-4" cx="1377.75" cy="272.37" r="26.77"/><circle class="cls-5" cx="1373.13" cy="264.9" r="26.77"/><circle class="cls-4" cx="1237.39" cy="261.34" r="26.77"/><circle class="cls-5" cx="1232.77" cy="253.87" r="26.77"/><circle class="cls-4" cx="1518.11" cy="283.4" r="26.77"/><circle class="cls-5" cx="1513.49" cy="275.93" r="26.77"/><circle class="cls-4" cx="395.24" cy="195.17" r="26.77"/><circle class="cls-5" cx="390.62" cy="187.69" r="26.77"/><circle class="cls-4" cx="254.89" cy="184.14" r="26.77"/><circle class="cls-5" cx="250.26" cy="176.66" r="26.77"/><circle class="cls-4" cx="132.53" cy="171.11" r="26.77"/><circle class="cls-5" cx="127.91" cy="163.63" r="26.77"/><polygon class="cls-6" points="647.37 216.52 656.65 222.84 600.8 244.54 604.07 233.34 647.37 216.52"/><polygon class="cls-6" points="1059.49 257.13 1068.77 263.45 1012.92 285.14 1016.19 273.94 1059.49 257.13"/><polygon class="cls-7" points="898.42 0 931.79 92.86 1027.21 118.02 949.2 178.45 954.76 276.97 873.18 221.46 781.2 257.19 808.79 162.45 746.38 86.01 845.01 82.97 898.42 0"/><polygon class="cls-7" points="675.63 80.38 696.92 139.66 757.82 155.71 708.03 194.28 711.58 257.17 659.51 221.73 600.8 244.54 618.41 184.07 578.58 135.28 641.53 133.34 675.63 80.38"/><polygon class="cls-6" points="675.63 80.38 696.13 137.44 684.77 134.45 669.03 90.63 675.63 80.38"/><polygon class="cls-6" points="708.03 194.29 711.58 257.17 699.24 248.78 695.88 189.08 743.74 152.01 757.82 155.71 708.03 194.29"/><polygon class="cls-7" points="1087.74 120.99 1109.04 180.26 1169.94 196.32 1120.15 234.89 1123.7 297.77 1071.63 262.34 1012.92 285.14 1030.53 224.67 990.7 175.89 1053.65 173.95 1087.74 120.99"/><polygon class="cls-6" points="1087.75 120.98 1108.25 178.05 1096.89 175.06 1081.15 131.23 1087.75 120.98"/><polygon class="cls-6" points="1120.15 234.89 1123.7 297.77 1111.36 289.38 1108 229.68 1155.86 192.61 1169.94 196.32 1120.15 234.89"/><polygon class="cls-6" points="854.77 213.45 869.37 223.39 781.58 257.5 786.71 239.89 854.77 213.45"/><polygon class="cls-6" points="898.68 0.66 931.63 92.36 913.38 87.55 888.08 17.13 898.68 0.66"/><polygon class="cls-6" points="949.12 177.85 954.66 275.95 935.41 262.86 930.16 169.72 1004.84 111.88 1026.81 117.66 949.12 177.85"/></g></g></svg>