<svg xmlns="http://www.w3.org/2000/svg" xmlns:xlink="http://www.w3.org/1999/xlink" viewBox="0 0 1042.36 769.72"><defs><style>.cls-1{fill:#020202;opacity:0.1;}.cls-2{fill:#f09c27;}.cls-3{fill:url(#linear-gradient);}.cls-4{fill:#fdffd7;}.cls-5{fill:#777;opacity:0.4;}.cls-6,.cls-9{opacity:0.2;}.cls-7,.cls-9{fill:#846400;}.cls-8{fill:#faf53b;}</style><linearGradient id="linear-gradient" x1="499.96" y1="83.15" x2="499.96" y2="637.48" gradientUnits="userSpaceOnUse"><stop offset="0" stop-color="#b64a06"/><stop offset="1" stop-color="#f68e20"/></linearGradient></defs><title>sentences</title><g id="Layer_2" data-name="Layer 2"><g id="Layer_1-2" data-name="Layer 1"><polygon class="cls-1" points="28.55 561.28 28.55 27.74 1042.36 27.74 1042.36 561.17 536.62 769.72 28.55 561.28"/><polygon class="cls-2" points="0 526.24 0 0 999.92 0 999.92 526.13 501.11 731.82 0 526.24"/><path class="cls-3" d="M914.64,466.92,501,637.48,85.28,466.92V83.15H914.64Z"/><polygon class="cls-4" points="109.8 449.42 109.8 101.27 896.52 101.27 896.52 449.45 504.21 611.23 109.8 449.42"/><polygon class="cls-5" points="896.52 101.27 896.52 449.45 504.2 611.23 109.8 449.41 109.8 433.87 503.14 595.24 895.46 433.46 895.46 101.27 896.52 101.27"/><polyline class="cls-5" points="108.73 102.34 895.46 102.34 895.46 130.31 109.8 130.31"/><g class="cls-6"><circle class="cls-7" cx="49.16" cy="498.11" r="26.77"/><circle class="cls-7" cx="500.95" cy="684.89" r="26.77"/><circle class="cls-7" cx="388" cy="638.19" r="26.77"/><circle class="cls-7" cx="275.05" cy="591.5" r="26.77"/><circle class="cls-7" cx="162.11" cy="544.8" r="26.77"/></g><circle class="cls-8" cx="47.03" cy="489.58" r="26.77"/><circle class="cls-8" cx="498.81" cy="676.36" r="26.77"/><circle class="cls-8" cx="385.87" cy="629.66" r="26.77"/><circle class="cls-8" cx="272.92" cy="582.97" r="26.77"/><circle class="cls-8" cx="159.98" cy="536.27" r="26.77"/><g class="cls-6"><circle class="cls-7" cx="950.81" cy="498.11" r="26.77"/><circle class="cls-7" cx="499.02" cy="684.89" r="26.77"/><circle class="cls-7" cx="611.97" cy="638.19" r="26.77"/><circle class="cls-7" cx="724.91" cy="591.5" r="26.77"/><circle class="cls-7" cx="837.86" cy="544.8" r="26.77"/></g><circle class="cls-8" cx="952.94" cy="489.58" r="26.77"/><circle class="cls-8" cx="501.15" cy="676.36" r="26.77"/><circle class="cls-8" cx="614.1" cy="629.66" r="26.77"/><circle class="cls-8" cx="727.05" cy="582.97" r="26.77"/><circle class="cls-8" cx="839.99" cy="536.27" r="26.77"/><g class="cls-6"><circle class="cls-7" cx="53.2" cy="499.52" r="26.77"/><circle class="cls-7" cx="52.37" cy="377.31" r="26.77"/><circle class="cls-7" cx="51.54" cy="255.09" r="26.77"/><circle class="cls-7" cx="50.71" cy="132.88" r="26.77"/></g><circle class="cls-8" cx="46.1" cy="494.34" r="26.77"/><circle class="cls-8" cx="45.27" cy="372.13" r="26.77"/><circle class="cls-8" cx="44.44" cy="249.91" r="26.77"/><circle class="cls-8" cx="43.61" cy="127.7" r="26.77"/><g class="cls-6"><circle class="cls-7" cx="961.45" cy="499.52" r="26.77"/><circle class="cls-7" cx="960.62" cy="377.31" r="26.77"/><circle class="cls-7" cx="959.79" cy="255.09" r="26.77"/><circle class="cls-7" cx="958.96" cy="132.88" r="26.77"/></g><circle class="cls-8" cx="954.35" cy="494.34" r="26.77"/><circle class="cls-8" cx="953.52" cy="372.13" r="26.77"/><circle class="cls-8" cx="952.69" cy="249.91" r="26.77"/><circle class="cls-8" cx="951.86" cy="127.7" r="26.77"/><circle class="cls-9" cx="439.21" cy="46.05" r="26.77"/><circle class="cls-8" cx="434.02" cy="38.96" r="26.77"/><circle class="cls-9" cx="951.69" cy="46.05" r="26.77"/><circle class="cls-8" cx="946.49" cy="38.96" r="26.77"/><circle class="cls-9" cx="823.57" cy="46.05" r="26.77"/><circle class="cls-8" cx="818.37" cy="38.96" r="26.77"/><circle class="cls-9" cx="695.45" cy="46.05" r="26.77"/><circle class="cls-8" cx="690.25" cy="38.96" r="26.77"/><circle class="cls-9" cx="567.33" cy="46.05" r="26.77"/><circle class="cls-8" cx="562.14" cy="38.96" r="26.77"/><circle class="cls-9" cx="311.09" cy="46.05" r="26.77"/><circle class="cls-8" cx="305.9" cy="38.96" r="26.77"/><circle class="cls-9" cx="182.97" cy="46.05" r="26.77"/><circle class="cls-8" cx="177.78" cy="38.96" r="26.77"/><circle class="cls-7" cx="54.85" cy="46.05" r="26.77"/><circle class="cls-8" cx="49.66" cy="38.96" r="26.77"/></g></g></svg>